<svg id="Capa_1" enable-background="new 0 0 512 512" height="512" viewBox="0 0 512 512" width="512" xmlns="http://www.w3.org/2000/svg"><g><g><g><g><path d="m208.945 332.503-33.235-17.343 158.586-303.896c1.788-3.426 6.014-4.753 9.439-2.966 13.942 7.275 20.559 23.58 15.632 38.514l-74.242 225.029c-4.95 15.004-19.101 25.03-34.898 24.724-13.665-.264-26.302 7.229-32.625 19.346z" fill="#c7e0e5"/><path d="m212.53 318.279-26.948-14.062c-7.682-4.009-17.158-1.031-21.167 6.651-22.91 43.902-67.304 45.819-67.406 45.857-28.732 3.027-54.039 20.243-67.406 45.857-16.546 31.708-4.256 70.826 27.452 87.373l15.529 8.103c27.706 14.458 61.886 3.719 76.344-23.987l70.252-134.624c4.009-7.682 1.032-17.159-6.65-21.168zm-69.344 90.065-24.765 47.457c-5.92 11.344-19.915 15.741-31.259 9.822l-13.549-7.07c-14.348-7.488-19.995-25.372-12.461-39.696 7.902-15.024 22.685-25.049 39.577-26.829 8.352-.88 16.489-2.6 24.31-5.091 12.947-4.125 24.433 9.361 18.147 21.407z" fill="#62d8f9"/><g><path d="m212.53 318.279-26.948-14.062c-7.682-4.009-17.158-1.031-21.167 6.651-4.02 7.703-9.12 14.646-15.067 20.672l-29.739 56.988c1.826-.489 3.636-1.02 5.43-1.591 12.947-4.124 24.433 9.362 18.147 21.408l-24.765 47.457c-5.92 11.344-19.915 15.741-31.259 9.822l-13.549-7.07c-.17-.089-.339-.18-.507-.271-12.772 7.285-28.171 9.477-42.815 5.515 5.938 10.801 15.019 20.028 26.766 26.158l15.529 8.103c27.706 14.458 61.886 3.719 76.344-23.987l70.252-134.624c4.007-7.683 1.03-17.16-6.652-21.169z" fill="#0acefa"/></g></g><g><path d="m303.055 332.503 33.235-17.343-158.586-303.896c-1.788-3.426-6.014-4.753-9.439-2.966-13.942 7.275-20.559 23.58-15.632 38.514l74.242 225.029c4.95 15.004 19.101 25.03 34.898 24.724 13.665-.264 26.302 7.229 32.625 19.346z" fill="#daeaef"/><path d="m482.396 402.581c-13.366-25.614-38.673-42.83-67.406-45.857-28.733-3.027-54.039-20.243-67.406-45.857-4.009-7.682-13.485-10.659-21.167-6.651l-26.948 14.062c-7.682 4.009-10.659 13.485-6.651 21.167l70.252 134.624c14.458 27.705 48.638 38.445 76.344 23.987l15.529-8.103c31.709-16.546 43.999-55.664 27.453-87.372zm-44.009 55.971-13.549 7.07c-11.344 5.92-25.339 1.523-31.259-9.822l-24.765-47.457c-6.286-12.046 5.2-25.533 18.147-21.408 7.822 2.492 15.959 4.211 24.31 5.091 16.891 1.78 31.674 11.805 39.577 26.829 7.534 14.325 1.887 32.21-12.461 39.697z" fill="#62d8f9"/><g><path d="m482.396 402.581c-13.366-25.614-38.673-42.83-67.406-45.857-28.733-3.027-54.039-20.243-67.406-45.857-4.009-7.682-13.485-10.659-21.167-6.651l-26.948 14.062c-7.682 4.009-10.659 13.485-6.651 21.167l13.051 25.01c13.879 14.272 32.475 23.5 52.784 25.639 3.931.414 7.798 1.094 11.579 2.025 3.647-4.708 9.989-7.331 16.727-5.185 7.822 2.492 15.959 4.211 24.31 5.091 16.891 1.78 31.674 11.805 39.577 26.829 7.534 14.324 1.887 32.208-12.461 39.696l-5.133 2.679c1.096 15.227-3.256 30.4-12.174 42.715 6.237-.873 12.433-2.809 18.335-5.889l15.529-8.103c31.71-16.545 44-55.663 27.454-87.371z" fill="#0acefa"/></g></g></g><circle cx="256" cy="235.812" r="7.607"/></g><g><path d="m122.763 379.79c-7.391 2.354-15.069 3.962-22.821 4.779-19.376 2.041-36.359 13.554-45.427 30.796-9.45 17.968-2.461 40.396 15.628 49.836l13.548 7.071c15.086 7.872 33.604 1.896 41.379-13.001l24.765-47.457c4.323-8.286 3.281-17.867-2.721-25.005-5.952-7.081-15.51-9.837-24.351-7.019zm13.774 25.084-24.765 47.457c-3.996 7.658-13.482 10.639-21.141 6.642l-13.548-7.07c-10.696-5.582-14.889-18.915-9.293-29.556 6.732-12.8 19.339-21.346 33.725-22.862 8.761-.923 17.442-2.741 25.801-5.404 3.342-1.064 6.385.081 8.319 2.379.765.913 3.095 4.212.902 8.414z"/><path d="m412.058 384.569c-7.752-.817-15.429-2.425-22.821-4.779-19.134-6.094-36.542 13.873-27.072 32.023l24.765 47.457c7.802 14.95 26.349 20.845 41.379 13.001l13.548-7.07c18.072-9.431 25.089-31.849 15.628-49.836-9.068-17.242-26.051-28.755-45.427-30.796zm22.859 67.335-13.548 7.07c-7.661 3.998-17.144 1.018-21.141-6.642l-24.765-47.457c-2.851-5.463 1.513-11.2 6.711-11.2 3.549 0 10.271 3.911 28.312 5.811 14.385 1.516 26.992 10.062 33.725 22.862 5.592 10.634 1.408 23.971-9.294 29.556z"/><path d="m489.044 399.111c-14.566-27.913-41.956-46.547-73.269-49.846-26.3-2.77-49.306-18.422-61.541-41.868-4.014-7.69-11.731-12.252-20.034-12.452l-149.847-287.149c-3.705-7.103-12.453-9.853-19.558-6.146-17.283 9.018-25.393 29-19.285 47.512l62.187 188.492-29.897 57.292c-8.299.199-16.019 4.759-20.034 12.452-12.235 23.446-35.241 39.097-61.542 41.868-31.313 3.298-58.702 21.932-73.268 49.846-18.476 35.406-4.778 79.012 30.631 97.491l15.529 8.103c31.215 16.292 69.989 4.4 86.462-27.165l3.421-6.554c1.916-3.672.493-8.202-3.18-10.119-3.671-1.917-8.201-.494-10.119 3.179l-3.421 6.555c-12.549 24.05-42.172 33.359-66.225 20.807l-15.529-8.103c-28.053-14.64-38.916-49.194-24.272-77.254 12.234-23.446 35.24-39.097 61.541-41.868 31.313-3.298 58.703-21.932 73.269-49.846 2.092-4.011 7.035-5.565 11.048-3.472l26.947 14.063c4.012 2.093 5.567 7.035 3.472 11.048l-50.51 96.791c-1.916 3.672-.492 8.202 3.18 10.118 3.669 1.915 8.202.494 10.119-3.179l50.51-96.791c2.865-5.491 3.421-11.769 1.564-17.679-.697-2.217-1.702-4.282-2.975-6.148 5.088-9.48 14.884-15.215 25.665-15.024 10.233.187 27.962-2.742 37.497 15.024-4.634 6.791-5.546 15.903-1.411 23.828l70.253 134.624c16.377 31.381 55.042 43.563 86.462 27.166l15.529-8.103c35.406-18.478 49.11-62.083 30.631-97.493zm-276.582-89.326-20.031-10.453 21.82-41.814c4.703 11.771 5.264 24.118 17.546 35.294-7.892 3.512-14.665 9.349-19.335 16.973zm49.165-20.717c-12.571.237-23.688-7.623-27.631-19.576l-74.242-225.03c-3.741-11.339 1.106-23.568 11.536-29.277l148.279 284.146-20.03 10.452c-8.057-13.152-22.334-21.052-37.912-20.715zm189.847 194.236-15.529 8.104c-24.05 12.551-53.673 3.246-66.225-20.807l-70.253-134.624c-2.095-4.012-.542-8.954 3.472-11.048l26.947-14.063c4.027-2.101 8.963-.526 11.048 3.472 14.566 27.914 41.957 46.547 73.268 49.845 26.302 2.771 49.308 18.422 61.542 41.868 14.643 28.052 3.791 62.61-24.27 77.253z"/><path d="m268.716 136.934c3.669 1.914 8.202.494 10.119-3.179l61.875-118.57c10.429 5.709 15.277 17.937 11.536 29.277l-52.008 157.639c-1.298 3.933.839 8.174 4.772 9.472 3.925 1.294 8.171-.831 9.471-4.773l52.009-157.638c6.108-18.512-2.002-38.494-19.285-47.513-7.103-3.706-15.852-.958-19.558 6.145l-62.11 119.021c-1.916 3.673-.492 8.203 3.179 10.119z"/></g></g></svg>